<svg height="512pt" viewBox="0 0 512 512" width="512pt" xmlns="http://www.w3.org/2000/svg"><path d="m511.972656 179.457031c-.652344-30.503906-13.078125-59.179687-34.988281-80.742187-21.90625-21.5625-50.773437-33.53125-81.285156-33.710938-5.171875-.035156-10.339844.277344-15.453125.921875-27.753906-41-74.117188-65.925781-124.246094-65.925781-50.132812 0-96.496094 24.925781-124.246094 65.925781-4.074218-.515625-8.179687-.816406-12.292968-.902343-31.265626-.640626-61.019532 11.222656-83.824219 33.429687-22.792969 22.191406-35.449219 51.609375-35.63281275 82.832031-.31640625 52.519532 34.76562475 98.304688 83.99609375 112.886719v157.828125c0 33.085938 26.914062 60 60 60h229c33.082031 0 60-26.914062 60-60 0-11.046875-8.957031-20-20-20-11.046875 0-20 8.953125-20 20 0 11.027344-8.972656 20-20 20h-229c-11.027344 0-20-8.972656-20-20v-81h208c11.046875 0 20-8.953125 20-20s-8.953125-20-20-20h-208v-52.921875c0-9.988281-7.375-18.445313-17.273438-19.8125-38.269531-5.269531-66.957031-38.261719-66.726562-76.742187.125-20.425782 8.480469-39.75 23.539062-54.410157 15.070313-14.675781 34.652344-22.511719 55.089844-22.097656 6.070313.125 12.101563.964844 17.933594 2.492187 8.910156 2.328126 18.257812-1.726562 22.648438-9.824218 19.277343-35.578125 56.363281-57.683594 96.789062-57.683594 32.789062 0 63.382812 14.546875 84.058594 39.03125-36.882813 19.578125-62.058594 58.382812-62.058594 102.96875 0 11.046875 8.953125 20 20 20s20-8.953125 20-20c0-42.183594 34.316406-76.5 76.5-76.5 1.375 0 2.714844-.140625 4.011719-.402344 39.9375 1.839844 72.613281 34.953125 73.46875 75.210938.808593 37.859375-25.550781 70.394531-62.671875 77.363281-9.457032 1.773437-16.308594 10.03125-16.308594 19.652344v73.675781c0 11.046875 8.953125 20 20 20 11.042969 0 20-8.953125 20-20v-58.328125c20.367188-7.003906 38.597656-19.597656 52.441406-36.449219 17.703125-21.546875 27.125-48.8125 26.53125-76.765625zm0 0"/></svg>