<?xml version="1.0" encoding="utf-8"?>
<!-- Generator: Adobe Illustrator 19.0.0, SVG Export Plug-In . SVG Version: 6.00 Build 0)  -->
<svg version="1.1" id="Ebene_1" xmlns="http://www.w3.org/2000/svg" xmlns:xlink="http://www.w3.org/1999/xlink" x="0px" y="0px"
	 viewBox="0 0 960 560" style="enable-background:new 0 0 960 560;" xml:space="preserve">
<style type="text/css">
	.st0{fill:#D9E021;}
	.st1{fill:#39B54A;}
	.st2{font-family:'OpenSans-Extrabold';}
	.st3{font-size:72px;}
	.st4{fill:#FFFFFF;}
</style>
<polygon id="XMLID_3_" class="st0" points="885,153.9 827.7,128.4 770.4,103 770.4,103.5 544.8,128 558.3,252.3 783.9,227.7 
	783.9,227.2 834.2,190.7 "/>
<polygon id="XMLID_2_" class="st1" points="162.7,291.1 212.9,328.7 263.1,366.2 263.2,365.8 488.7,392 503.1,267.9 277.7,241.6 
	277.6,242.1 220.4,266.5 "/>
<text id="XMLID_1_" transform="matrix(0.9926 0.1217 -0.1217 0.9926 284.0965 331.5622)" class="st2 st3">This</text>
<text id="XMLID_7_" transform="matrix(0.9957 -9.242455e-002 9.242455e-002 0.9957 591.1797 209.6948)" class="st2 st3">That</text>
<rect id="XMLID_4_" x="454" y="204" width="132" height="76"/>
<text id="XMLID_5_" transform="matrix(1 7.054480e-003 -7.054480e-003 1 475.0871 267.6382)" class="st4 st2 st3">Or</text>
</svg>
